PathFileType	4	(X/Y/Z)	/Users/visionmauri/1_8_1_f_Sports2D/1_8_1_f_Sports2D_m_person00.trc
DataRate	CameraRate	NumFrames	NumMarkers	Units	OrigDataRate	OrigDataStartFrame	OrigNumFrames
30.0	30.0	6	22	m	30.0	179	358
Frame#	Time	Hip			RHip			RKnee			RAnkle			RBigToe			RSmallToe			RHeel			LHip			LKnee			LAnkle			LBigToe			LSmallToe			LHeel			Neck			Head			Nose			RShoulder			RElbow			RWrist			LShoulder			LElbow			LWrist			
		X1	Y1	Z1	X2	Y2	Z2	X3	Y3	Z3	X4	Y4	Z4	X5	Y5	Z5	X6	Y6	Z6	X7	Y7	Z7	X8	Y8	Z8	X9	Y9	Z9	X10	Y10	Z10	X11	Y11	Z11	X12	Y12	Z12	X13	Y13	Z13	X14	Y14	Z14	X15	Y15	Z15	X16	Y16	Z16	X17	Y17	Z17	X18	Y18	Z18	X19	Y19	Z19	X20	Y20	Z20	X21	Y21	Z21	X22	Y22	Z22
179	5.983380018674136	0.7671381145417117	0.9079711275056895	0.0301	0.7027617047595631	0.8979886800450183	0.0301	0.6920236838364398	0.5983943993325657	0.129	0.7268481863049194	0.30294912341961816	0.023	0.6666240476589194	0.22328681319242488	0.2179	0.6607692164597828	0.23804739493598404	0.1804	0.7519755620460145	0.25270426452169736	-0.0119	0.83078020881269	0.9073615151860888	0.0301	0.822626566634723	0.6107708241143506	0.129	0.841833012042867	0.2921550990497781	0.023	0.7812062552303949	0.22624949651040518	0.2179	0.8275208375446359	0.2206877129910406	0.1804	0.8703269821112883	0.24477392597974446	-0.0119	0.7308310246558841	1.3648479324844731	0.0008	0.6737178814334209	1.5558610136600448	0.0655	0.644332984139808	1.4352391467847927	0.1076	0.6367863270261028	1.285885347248745	-0.01275	0.6260865204081011	1.0885550916522968	0.0702	0.5349836713269831	0.9668569436166553	0.1076	0.8647489158223317	1.3027205027635849	-0.01275	0.9471962698937494	1.0924833789839472	0.0702	0.9311922050264062	0.917679516842802	0.1076
180	6.016806722689076	0.7599973605486892	0.9093305637866247	0.0301	0.6958622060068566	0.8991494091399583	0.0301	0.6875911805838943	0.5978930174575506	0.129	0.7263109673174246	0.30402469856516723	0.023	0.6681561052068128	0.22323649442894217	0.2179	0.6613230854395038	0.23724140698106036	0.1804	0.7496680142731372	0.2546558517366915	-0.0119	0.8247590931291267	0.9093137812606014	0.0301	0.8205084614898399	0.6148138716921248	0.129	0.8413177119165391	0.2935318755640706	0.023	0.7912374511780219	0.2278129472911701	0.2179	0.8370587865474384	0.22212083518959494	0.1804	0.8671017438419857	0.24629007619576762	-0.0119	0.7232779344780528	1.3648528631801868	0.0008	0.6669757728866853	1.5552695074242056	0.0655	0.6444502381827923	1.4340980620188444	0.1076	0.6275691723002818	1.285413198004523	-0.01275	0.6153871965033649	1.090689546613262	0.0702	0.5300594199595302	0.9653991237350668	0.1076	0.8582762254002216	1.3043592769791565	-0.01275	0.9447983946158731	1.0942028126384145	0.0702	0.9320252506350465	0.9176954132879281	0.1076
181	6.050233426704015	0.7537275848823386	0.9122364960399012	0.0301	0.6895196654465106	0.9009152331711556	0.0301	0.6842594097660437	0.597661412769313	0.129	0.7256511842329896	0.30516532745877256	0.023	0.6649136913181616	0.2236415862580237	0.2179	0.6584381284291166	0.23746910916122382	0.1804	0.7468732894143416	0.25653741179631817	-0.0119	0.8175383869046525	0.9113144904214676	0.0301	0.8197914018507779	0.6169487430728865	0.129	0.8409987592015132	0.2938001578741707	0.023	0.794706661132813	0.23220103245730667	0.2179	0.8386053342543949	0.22433969932239486	0.1804	0.8649263268782117	0.24749336521133067	-0.0119	0.7163713783448163	1.3648421779727737	0.0008	0.6619851319824767	1.5555865323163807	0.0655	0.6433633539258298	1.4343740699041703	0.1076	0.6181327513959817	1.2857797608241315	-0.01275	0.6072508441900087	1.0902729189547875	0.0702	0.5269782676450523	0.9638297365245353	0.1076	0.853043606014842	1.3064299367608077	-0.01275	0.9414405511715549	1.0969483994610942	0.0702	0.9305357973576166	0.9168140108946824	0.1076
182	6.083660130718954	0.7489743588235978	0.9157401852279804	0.0301	0.6836853168075591	0.9034330243674388	0.0301	0.6807605096861028	0.5976297161476065	0.129	0.7250239582643921	0.30607958422622195	0.023	0.6609179379327363	0.22159127446532328	0.2179	0.6539191743759417	0.2364828457929398	0.1804	0.7456985499725348	0.25766045805479054	-0.0119	0.8126474674432138	0.9131073421725718	0.0301	0.818305079832649	0.6178049023916407	0.129	0.8401290087197398	0.2954140149269515	0.023	0.7941597333200284	0.23591312292493546	0.2179	0.8350560959239725	0.22557841970538073	0.1804	0.8623396866896275	0.24877516187760695	-0.0119	0.708857043115882	1.36515082283428	0.0008	0.6566714198838381	1.5563998106454044	0.0655	0.6404225316082556	1.4342103367612125	0.1076	0.6076024155101395	1.2845663678816348	-0.01275	0.5994122865373982	1.08601505457122	0.0702	0.5266783159126114	0.9635342807834852	0.1076	0.8485345159968406	1.3089706062422028	-0.01275	0.9376968714931494	1.100049620361031	0.0702	0.9277506235828833	0.918010574042011	0.1076
183	6.117086834733893	0.7454004126698468	0.9182545851656688	0.0301	0.6781123995699336	0.905509330737098	0.0301	0.6763597505400035	0.5969635230184392	0.129	0.7248208744392106	0.3062963009135522	0.023	0.6631184588528901	0.2172773328263682	0.2179	0.6524844229743381	0.23296310743324777	0.1804	0.7469525700768308	0.25789541719552855	-0.0119	0.8115553069900427	0.9146610318266863	0.0301	0.8166317977224414	0.6180357215056916	0.129	0.8397831088499149	0.2986764044430612	0.023	0.7929083408738524	0.23529291204415356	0.2179	0.8323747277465836	0.22482418329015838	0.1804	0.8605218879996437	0.2496543309716914	-0.0119	0.7010436552704237	1.3659201059907382	0.0008	0.6505138075120982	1.55793522599135	0.0655	0.6374089683084618	1.4331093582775734	0.1076	0.5967609569050983	1.2808434675748235	-0.01275	0.5902679486531696	1.08199501211735	0.0702	0.5286803072043897	0.964472325801661	0.1076	0.8443070384042416	1.312499142882048	-0.01275	0.9335988547525998	1.1028719739602488	0.0702	0.9258683246588887	0.9231319552007257	0.1076
184	6.150513538748832	0.742631418337502	0.9197185928890049	0.0301	0.6728150856019809	0.9059696404934001	0.0301	0.6726318629228439	0.5954940160140438	0.129	0.7249529199298884	0.30542736463666703	0.023	0.6704753134633313	0.2134784385107592	0.2179	0.6548908976271709	0.22877451601203055	0.1804	0.7492030035670407	0.25783569814086044	-0.0119	0.8119647673361289	0.916151523909782	0.0301	0.816014378457576	0.619333957367234	0.129	0.8401232216549192	0.30071185342156653	0.023	0.7898791941227243	0.23184201873158197	0.2179	0.831736805644204	0.22401294651333423	0.1804	0.8599484256464637	0.25024624757441494	-0.0119	0.6946247848543388	1.3663641751050841	0.0008	0.6449948963389959	1.5592765747368842	0.0655	0.6368524203957486	1.4319813628599	0.1076	0.5866900106594098	1.27741178394166	-0.01275	0.5810649430627673	1.0815667169501526	0.0702	0.5314630489836345	0.9643713221517358	0.1076	0.8407488114423084	1.315991847246698	-0.01275	0.9286133184911647	1.1061181394523358	0.0702	0.9253321268363427	0.9321810714953277	0.1076
